<svg xmlns="http://www.w3.org/2000/svg" width="430" height="430" style="width:100%;height:100%;transform:translate3d(0,0,0);content-visibility:visible" viewBox="0 0 430 430"><defs><mask id="z" mask-type="alpha"><use xmlns:ns1="http://www.w3.org/1999/xlink" ns1:href="#a"/></mask><mask id="U" mask-type="alpha"><use xmlns:ns2="http://www.w3.org/1999/xlink" ns2:href="#b"/></mask><mask id="T" mask-type="alpha"><use xmlns:ns3="http://www.w3.org/1999/xlink" ns3:href="#c"/></mask><mask id="S" mask-type="alpha"><use xmlns:ns4="http://www.w3.org/1999/xlink" ns4:href="#d"/></mask><mask id="B" mask-type="alpha"><use xmlns:ns5="http://www.w3.org/1999/xlink" ns5:href="#g"/></mask><mask id="D" mask-type="alpha"><use xmlns:ns6="http://www.w3.org/1999/xlink" ns6:href="#h"/></mask><mask id="Q" mask-type="alpha"><use xmlns:ns7="http://www.w3.org/1999/xlink" ns7:href="#i"/></mask><mask id="O" mask-type="alpha"><use xmlns:ns8="http://www.w3.org/1999/xlink" ns8:href="#k"/></mask><mask id="P" mask-type="alpha"><use xmlns:ns9="http://www.w3.org/1999/xlink" ns9:href="#l"/></mask><mask id="F" mask-type="alpha"><use xmlns:ns10="http://www.w3.org/1999/xlink" ns10:href="#m"/></mask><mask id="M" mask-type="alpha"><use xmlns:ns11="http://www.w3.org/1999/xlink" ns11:href="#n"/></mask><mask id="H" mask-type="alpha"><use xmlns:ns12="http://www.w3.org/1999/xlink" ns12:href="#r"/></mask><mask id="L" mask-type="alpha"><use xmlns:ns13="http://www.w3.org/1999/xlink" ns13:href="#s"/></mask><mask id="K" mask-type="alpha"><use xmlns:ns14="http://www.w3.org/1999/xlink" ns14:href="#v"/></mask><clipPath id="I"><path d="M0 0h430v430H0z"/></clipPath><clipPath id="R"><path d="M0 0h430v430H0z"/></clipPath><clipPath id="w"><path d="M0 0h430v430H0z"/></clipPath><clipPath id="N"><path d="M0 0h430v430H0z"/></clipPath><clipPath id="A"><path d="M0 0h430v430H0z"/></clipPath><clipPath id="C"><path d="M0 0h430v430H0z"/></clipPath><clipPath id="J"><path d="M0 0h430v430H0z"/></clipPath><clipPath id="E"><path d="M0 0h430v430H0z"/></clipPath><clipPath id="G"><path d="M0 0h430v430H0z"/></clipPath><path id="a" style="display:none"/><path id="c" style="display:none"/><path id="d" style="display:none"/><path id="g" fill="red" d="M135-167.5h-270l29.276 294.86 211.433.161z" style="display:block" transform="translate(215 222.5)"/><path id="h" fill="red" d="M135-167.5h-270l29.276 294.86 211.433.161z" style="display:block" transform="translate(215 222.5)"/><path id="k" fill="red" d="M135-167.5h-270l31.471 316.976c1.016 10.23 9.622 18.024 19.902 18.024H83.626c10.28 0 18.887-7.794 19.903-18.024z" style="display:block" transform="translate(215 222.5)"/><path id="m" style="display:none"/><path id="r" style="display:none"/><path id="v" style="display:none"/><g id="b" clip-path="url(#w)" mask="url(#z)" style="display:none"><path class="secondary"/><path class="secondary" style="mix-blend-mode:multiply"/></g><g id="l" clip-path="url(#A)" mask="url(#B)" style="display:block"><path fill="red" d="M167.001 415h-375s-45.77-260.36-.3-282.47q68.205-33.15 136.41 4.47c38.83 21.42 77.66 25.64 116.49 12.64l43.4-17.39m-.3.1c45.47-22.11 90.94-20.62 136.41 4.46 38.83 21.43 77.66 25.64 116.49 12.64l.4 275.55h-286"/></g><g id="i" clip-path="url(#C)" mask="url(#D)" style="display:block"><path fill="red" d="M167.001 415h-375s-45.77-260.36-.3-282.47q68.205-33.15 136.41 4.47c38.83 21.42 77.66 25.64 116.49 12.64l43.4-17.39m-.3.1c45.47-22.11 90.94-20.62 136.41 4.46 38.83 21.43 77.66 25.64 116.49 12.64l.4 275.55h-286"/></g><g id="n" clip-path="url(#E)" mask="url(#F)" style="display:none"><path/></g><g id="s" clip-path="url(#G)" mask="url(#H)" style="display:none"><path/></g></defs><g clip-path="url(#I)"><g clip-path="url(#J)" style="display:none"><g style="display:none"><path class="tertiary"/><path class="tertiary" style="mix-blend-mode:multiply"/></g><g mask="url(#K)" style="display:none"><path class="tertiary"/></g><g style="display:none"><path class="tertiary"/><path class="tertiary" style="mix-blend-mode:multiply"/><path class="tertiary" style="mix-blend-mode:multiply"/></g><g mask="url(#L)" style="display:none"><path class="secondary"/><path class="secondary" style="mix-blend-mode:multiply"/></g><g mask="url(#M)" style="display:none"><path class="secondary"/></g><path class="secondary" style="mix-blend-mode:multiply;display:none"/><path class="secondary" style="mix-blend-mode:multiply;display:none"/><path class="secondary" style="mix-blend-mode:multiply;display:none"/><path class="secondary" style="mix-blend-mode:multiply;display:none"/><g fill="none" style="display:none"><path class="primary"/><path class="primary"/></g><path fill="none" class="primary" style="display:none"/><path fill="none" class="primary" style="display:none"/><path fill="none" class="primary" style="display:none"/><path fill="none" class="primary" style="display:none"/><path fill="none" class="primary" style="display:none"/></g><g clip-path="url(#N)" style="display:block"><g fill="#EBE6EE" style="display:block"><path d="M349.673 58.296A3 3 0 0 0 346.688 55H83.313a3 3 0 0 0-2.986 3.296L90.921 165h248.158z" class="tertiary"/><path fill-opacity=".5" d="M134.673-51.704A3 3 0 0 0 131.688-55h-263.375a3 3 0 0 0-2.986 3.296L-124.079 55h248.158z" class="tertiary" style="mix-blend-mode:multiply" transform="translate(215 110)"/></g><g mask="url(#O)" style="display:block"><path fill="#EBE6EE" d="M387.5 27.5h-270l33.971 344.476c1.016 10.23 9.622 18.024 19.902 18.024h167.253c10.28 0 18.887-7.794 19.903-18.024z" class="tertiary"/></g><g style="display:block"><path fill="#EBE6EE" d="M131.374 390h167.253c10.28 0 18.886-7.794 19.902-18.024L321.207 345H108.793l2.679 26.976c1.015 10.23 9.621 18.024 19.902 18.024" class="tertiary"/><path fill="#EBE6EE" d="m-105.71-20 2.181 21.975C-102.513 12.206-93.908 20-83.628 20H83.627c10.28 0 18.885-7.794 19.901-18.024L105.71-20z" class="tertiary" style="mix-blend-mode:multiply" transform="translate(215.001 370)"/><g opacity=".5" style="mix-blend-mode:multiply"><path fill="#EBE6EE" d="M111.471 371.976c1.015 10.23 9.622 18.024 19.903 18.024h40c-10.281 0-18.888-7.794-19.903-18.024l-2.629-26.476h-39.999z" class="tertiary" opacity="1"/></g></g><g fill="#4AB3FC" mask="url(#P)" style="display:block"><path d="M167.001 415h-375s-45.77-260.36-.3-282.47q68.205-33.15 136.41 4.47c38.83 21.42 77.66 25.64 116.49 12.64l43.4-17.39m-.3.1c45.47-22.11 90.94-20.62 136.41 4.46 38.83 21.43 77.66 25.64 116.49 12.64l.4 275.55h-286" class="secondary"/><path fill-opacity=".5" d="M-47.15 278h-375s-45.77-260.36-.3-282.47Q-354.245-37.62-286.04 0c38.83 21.42 77.66 25.64 116.49 12.64l43.4-17.39m-.3.1C-80.98-26.76-35.51-25.27 9.96-.19c38.83 21.43 77.66 25.64 116.49 12.64l.4 275.55h-286" class="secondary" style="mix-blend-mode:multiply" transform="translate(214.151 137)"/></g><g mask="url(#Q)" style="display:block"><path fill="#4AB3FC" d="M387.5 27.5h-270l33.971 344.476c1.016 10.23 9.622 18.024 19.902 18.024h167.253c10.28 0 18.887-7.794 19.903-18.024z" class="secondary"/></g><g opacity=".5" style="mix-blend-mode:multiply;display:none"><path fill="#4AB3FC" d="M177.5 180c15.177 0 27.5 12.323 27.5 27.5S192.677 235 177.5 235 150 222.677 150 207.5s12.323-27.5 27.5-27.5" class="secondary" opacity="1"/></g><g opacity=".5" style="mix-blend-mode:multiply;display:none"><path fill="#4AB3FC" d="M245 250c11.038 0 20 8.962 20 20s-8.962 20-20 20-20-8.962-20-20 8.962-20 20-20" class="secondary" opacity="1"/></g><g opacity=".5" style="mix-blend-mode:multiply;display:block"><path fill="#4AB3FC" d="M177.5 180c15.177 0 27.5 12.323 27.5 27.5S192.677 235 177.5 235 150 222.677 150 207.5s12.323-27.5 27.5-27.5" class="secondary" opacity="1"/></g><g opacity=".5" style="mix-blend-mode:multiply;display:block"><path fill="#4AB3FC" d="M245 250c11.038 0 20 8.962 20 20s-8.962 20-20 20-20-8.962-20-20 8.962-20 20-20" class="secondary" opacity="1"/></g><path fill="none" stroke="#121330" stroke-linejoin="round" stroke-width="7" d="M0-27.5c15.177 0 27.5 12.323 27.5 27.5S15.177 27.5 0 27.5-27.5 15.177-27.5 0-15.177-27.5 0-27.5z" class="primary" style="display:none" transform="translate(177.5 207.5)"/><path fill="none" stroke="#121330" stroke-linejoin="round" stroke-width="7" d="M0-20c11.038 0 20 8.962 20 20S11.038 20 0 20s-20-8.962-20-20 8.962-20 20-20z" class="primary" style="display:none" transform="translate(245 270)"/><path fill="none" stroke="#121330" stroke-linejoin="round" stroke-width="7" d="M0-27.5c15.177 0 27.5 12.323 27.5 27.5S15.177 27.5 0 27.5-27.5 15.177-27.5 0-15.177-27.5 0-27.5z" class="primary" style="display:block" transform="translate(177.5 207.5)"/><path fill="none" stroke="#121330" stroke-linejoin="round" stroke-width="7" d="M0-20c11.038 0 20 8.962 20 20S11.038 20 0 20s-20-8.962-20-20 8.962-20 20-20z" class="primary" style="display:block" transform="translate(245 270)"/><path fill="none" stroke="#121330" stroke-linejoin="round" stroke-width="7" d="M87.698 132.347q68.205-33.157 136.411 4.467 58.248 32.132 116.495 12.641" class="primary" style="display:block"/><path fill="none" stroke="#121330" stroke-linejoin="round" stroke-width="7" d="M105.711 127.5h-211.422M135-167.5h-270l31.471 316.976c1.016 10.23 9.622 18.024 19.902 18.024H83.626c10.28 0 18.887-7.794 19.903-18.024z" class="primary" style="display:block" transform="translate(215 222.5)"/></g><g clip-path="url(#R)" style="display:none"><g style="display:none"><path class="tertiary"/><path class="tertiary" style="mix-blend-mode:multiply"/></g><g mask="url(#S)" style="display:none"><path class="tertiary"/></g><g style="display:none"><path class="tertiary"/><path class="tertiary" style="mix-blend-mode:multiply"/><path class="tertiary" style="mix-blend-mode:multiply"/></g><g mask="url(#T)" style="display:none"><path class="secondary"/><path class="secondary" style="mix-blend-mode:multiply"/></g><g mask="url(#U)" style="display:none"><path class="secondary"/></g><path class="secondary" style="mix-blend-mode:multiply;display:none"/><path class="secondary" style="mix-blend-mode:multiply;display:none"/><path fill="none" class="primary" style="display:none"/><path fill="none" class="primary" style="display:none"/><g fill="none" style="display:none"><path class="primary"/><path class="primary"/></g><path fill="none" class="primary" style="display:none"/></g></g></svg>